<svg xmlns="http://www.w3.org/2000/svg" viewBox="0 0 64 64" fill="none">
  <defs>
    <linearGradient id="bg" x1="8" y1="4" x2="56" y2="60" gradientUnits="userSpaceOnUse">
      <stop stop-color="#F97316"/>
      <stop offset="0.55" stop-color="#FB923C"/>
      <stop offset="1" stop-color="#F59E0B"/>
    </linearGradient>
    <linearGradient id="bubble" x1="14" y1="12" x2="50" y2="44" gradientUnits="userSpaceOnUse">
      <stop stop-color="#FFFFFF"/>
      <stop offset="1" stop-color="#FFF7ED"/>
    </linearGradient>
  </defs>
  <rect x="2" y="2" width="60" height="60" rx="14" fill="url(#bg)"/>
  <rect x="5" y="5" width="54" height="54" rx="12" fill="white" fill-opacity="0.08"/>
  <path
    d="M16 18c0-3.3 2.7-6 6-6h20c3.3 0 6 2.7 6 6v14c0 3.3-2.7 6-6 6H31l-7.5 7.2c-.9.9-2.5.2-2.5-1.1V38h-1c-3.3 0-6-2.7-6-6V18z"
    fill="url(#bubble)"
  />
  <path
    d="M34 28c0-2.2 1.8-4 4-4h8c2.2 0 4 1.8 4 4v8c0 2.2-1.8 4-4 4h-2.2l-3.2 3.1c-.5.5-1.3.1-1.3-.6V40H38c-2.2 0-4-1.8-4-4v-8z"
    fill="#FED7AA"
    fill-opacity="0.95"
  />
  <circle cx="26" cy="25" r="2.2" fill="#F97316"/>
  <circle cx="33" cy="25" r="2.2" fill="#F97316"/>
  <circle cx="40" cy="25" r="2.2" fill="#F97316"/>
  <circle cx="50" cy="14" r="3" fill="#FEF3C7" fill-opacity="0.9"/>
</svg>
